<?xml version="1.0" encoding="UTF-8" standalone="no"?>
<svg
   xmlns:dc="http://purl.org/dc/elements/1.1/"
   xmlns:cc="http://creativecommons.org/ns#"
   xmlns:rdf="http://www.w3.org/1999/02/22-rdf-syntax-ns#"
   xmlns:svg="http://www.w3.org/2000/svg"
   xmlns="http://www.w3.org/2000/svg"
   xmlns:sodipodi="http://sodipodi.sourceforge.net/DTD/sodipodi-0.dtd"
   xmlns:inkscape="http://www.inkscape.org/namespaces/inkscape"
   id="svg8"
   version="1.1"
   viewBox="0 0 6.3499998 6.3499998"
   height="24"
   width="24"
   sodipodi:docname="menu.svg"
   inkscape:version="0.92.4 (5da689c313, 2019-01-14)">
  <sodipodi:namedview
     pagecolor="#ffffff"
     bordercolor="#666666"
     borderopacity="1"
     objecttolerance="10"
     gridtolerance="10"
     guidetolerance="10"
     inkscape:pageopacity="0"
     inkscape:pageshadow="2"
     inkscape:window-width="1366"
     inkscape:window-height="705"
     id="namedview8"
     showgrid="false"
     inkscape:zoom="13.242881"
     inkscape:cx="11.291667"
     inkscape:cy="9.4211334"
     inkscape:window-x="-8"
     inkscape:window-y="-8"
     inkscape:window-maximized="1"
     inkscape:current-layer="svg8" />
  <defs
     id="defs2" />
  <metadata
     id="metadata5">
    <rdf:RDF>
      <cc:Work
         rdf:about="">
        <dc:format>image/svg+xml</dc:format>
        <dc:type
           rdf:resource="http://purl.org/dc/dcmitype/StillImage" />
        <dc:title />
      </cc:Work>
    </rdf:RDF>
  </metadata>
  <g
     transform="matrix(0.90651554,0,0,0.71513774,0.28931794,-206.97636)"
     id="layer1">
    <g
       transform="translate(10.034284,39.309523)"
       id="layer1-5">
      <path
         style="fill:#606060;stroke-width:0.01358182"
         d="m -9.5612239,252.7964 h 5.4204153 c 0.115145,0 0.2084776,-0.10059 0.2084776,-0.22651 v -0.5663 c 0,-0.12496 -0.093332,-0.22655 -0.2084776,-0.22655 h -5.4204153 c -0.1151444,0 -0.208477,0.10035 -0.208477,0.22655 v 0.5663 c 0,0.12494 0.093335,0.22651 0.208477,0.22651 z m 0,2.26521 h 5.4204153 c 0.115145,0 0.2084776,-0.10083 0.2084776,-0.22653 v -0.56626 c 0,-0.12496 -0.093332,-0.22653 -0.2084776,-0.22653 h -5.4204153 c -0.1151444,0 -0.208477,0.10059 -0.208477,0.22653 v 0.56626 c 0,0.12481 0.093335,0.22653 0.208477,0.22653 z m 0,2.26506 h 5.4204153 c 0.115145,0 0.2084776,-0.10082 0.2084776,-0.22651 v -0.56625 c 0,-0.12496 -0.093332,-0.22652 -0.2084776,-0.22652 h -5.4204153 c -0.1151444,0 -0.208477,0.10059 -0.208477,0.22652 v 0.56625 c 0,0.12496 0.093335,0.22651 0.208477,0.22651 z"
         id="path63"
         inkscape:connector-curvature="0" />
    </g>
  </g>
</svg>
